<?xml version="1.0" encoding="UTF-8"?>
<svg version="1.1" xmlns="http://www.w3.org/2000/svg" width="600" height="600">
<path d="M0 0 C2.33992532 -0.00323067 4.67985045 -0.00659592 7.01977539 -0.01008606 C11.89730291 -0.01602172 16.77481288 -0.01793198 21.65234375 -0.01733398 C26.56383988 -0.01725314 31.47524191 -0.02413863 36.38671875 -0.0378418 C65.67617914 -0.11822802 94.83543344 0.15696549 124.0625 2.16796875 C125.79249237 2.28505692 125.79249237 2.28505692 127.55743408 2.4045105 C134.0870215 2.85723038 140.60662071 3.38902113 147.125 3.98046875 C148.06744568 4.06444916 149.00989136 4.14842957 149.980896 4.23495483 C181.70365437 7.08115993 212.90754521 11.53882885 244.0625 18.16796875 C245.13274414 18.38952637 246.20298828 18.61108398 247.30566406 18.83935547 C262.12034772 21.94598312 276.57150291 26.87557907 288.0625 37.16796875 C288.72378906 37.74933594 289.38507812 38.33070312 290.06640625 38.9296875 C303.41628045 51.41827949 308.26442098 68.06241279 311.9375 85.41796875 C312.10447388 86.19619995 312.27144775 86.97443115 312.44348145 87.77624512 C319.84042879 122.5560053 324.02813481 158.12816414 326.84960938 193.55151367 C327.06045648 196.14285362 327.28631646 198.73250001 327.515625 201.32226562 C333.31674907 268.03363775 333.10920686 337.48439045 327.0625 404.16796875 C326.88343044 406.21936977 326.70473086 408.27080311 326.52636719 410.32226562 C323.44498849 445.28390694 319.28772638 480.1260927 312 514.48046875 C311.84018646 515.24597046 311.68037292 516.01147217 311.51571655 516.8001709 C307.27304446 536.90253096 299.58535194 556.66300429 281.734375 568.45703125 C268.92430309 576.31106949 254.80605372 580.03111979 240.25 583.10546875 C239.46137573 583.27405396 238.67275146 583.44263916 237.86022949 583.61633301 C195.23015157 592.66973974 151.54253093 596.90087591 108.0625 599.16796875 C107.28708894 599.20849869 106.51167788 599.24902863 105.71276951 599.29078674 C90.51067151 600.06499715 75.3451876 600.33086669 60.125 600.3359375 C57.78507468 600.33916817 55.44514955 600.34253342 53.10522461 600.34602356 C48.22769709 600.35195922 43.35018712 600.35386948 38.47265625 600.35327148 C33.56116012 600.35319064 28.64975809 600.36007613 23.73828125 600.3737793 C-5.55117914 600.45416552 -34.71043344 600.17897201 -63.9375 598.16796875 C-65.09082825 598.08990997 -66.24415649 598.0118512 -67.43243408 597.931427 C-73.9620215 597.47870712 -80.48162071 596.94691637 -87 596.35546875 C-87.94244568 596.27148834 -88.88489136 596.18750793 -89.855896 596.10098267 C-121.57865437 593.25477757 -152.78254521 588.79710865 -183.9375 582.16796875 C-185.00774414 581.94641113 -186.07798828 581.72485352 -187.18066406 581.49658203 C-201.99534772 578.38995438 -216.44650291 573.46035843 -227.9375 563.16796875 C-228.59878906 562.58660156 -229.26007813 562.00523437 -229.94140625 561.40625 C-243.29128045 548.91765801 -248.13942098 532.27352471 -251.8125 514.91796875 C-251.97947388 514.13973755 -252.14644775 513.36150635 -252.31848145 512.55969238 C-259.71542879 477.7799322 -263.90313481 442.20777336 -266.72460938 406.78442383 C-266.93545648 404.19308388 -267.16131646 401.60343749 -267.390625 399.01367188 C-273.19174907 332.30229975 -272.98420686 262.85154705 -266.9375 196.16796875 C-266.75843044 194.11656773 -266.57973086 192.06513439 -266.40136719 190.01367188 C-263.32189787 155.07369459 -259.18027275 120.24704511 -251.875 85.91796875 C-251.71518646 85.15673706 -251.55537292 84.39550537 -251.39071655 83.61120605 C-247.02079765 63.02073116 -239.76264797 44.28248817 -221.6796875 31.9453125 C-208.81488521 24.07651512 -194.73649587 20.31652751 -180.125 17.23046875 C-179.33637573 17.06188354 -178.54775146 16.89329834 -177.73522949 16.71960449 C-135.10515157 7.66619776 -91.41753093 3.43506159 -47.9375 1.16796875 C-47.16208894 1.12743881 -46.38667788 1.08690887 -45.58776951 1.04515076 C-30.38567151 0.27094035 -15.2201876 0.00507081 0 0 Z M-202.53125 264.265625 C-207.36069004 270.79878417 -208.01982478 278.23432387 -206.9375 286.16796875 C-204.28594047 294.3379449 -200.16521696 298.61372309 -192.9375 302.98046875 C-186.24851707 305.58753337 -177.28688795 305.23962687 -170.5 303.10546875 C-164.28265275 300.22977923 -160.24396857 295.48374696 -157.5 289.29296875 C-154.78354018 281.50813584 -155.20773431 275.07363311 -158.55078125 267.53125 C-162.19135829 261.32688631 -167.70772294 257.49421546 -174.58984375 255.60546875 C-185.29245844 253.6109715 -195.11113636 255.98799823 -202.53125 264.265625 Z M224.36621094 264.26953125 C223.37047058 264.44509552 223.37047058 264.44509552 222.35461426 264.62420654 C220.16811249 265.01055021 217.98250598 265.40173153 215.796875 265.79296875 C214.27806809 266.06231049 212.75920743 266.33134931 211.24029541 266.60009766 C207.24819648 267.30727719 203.25684034 268.01856581 199.265625 268.73071289 C195.19054484 269.45707322 191.11477554 270.17954464 187.0390625 270.90234375 C179.04619456 272.32041391 171.05417389 273.74318479 163.0625 275.16796875 C163.0625 283.41796875 163.0625 291.66796875 163.0625 300.16796875 C186.8225 300.16796875 210.5825 300.16796875 235.0625 300.16796875 C235.0625 287.95796875 235.0625 275.74796875 235.0625 263.16796875 C231.29235031 263.16796875 228.06914006 263.61123274 224.36621094 264.26953125 Z M-84.97167969 276.81054688 C-85.75218689 276.95069214 -86.53269409 277.0908374 -87.33685303 277.23522949 C-88.16928528 277.38834595 -89.00171753 277.5414624 -89.859375 277.69921875 C-90.71936096 277.85459106 -91.57934692 278.00996338 -92.46539307 278.17004395 C-95.20669948 278.66608572 -97.947097 279.16696256 -100.6875 279.66796875 C-102.54811919 280.0055276 -104.40879565 280.34277092 -106.26953125 280.6796875 C-110.82631166 281.50486718 -115.38183082 282.33658033 -119.9375 283.16796875 C-119.9375 295.70796875 -119.9375 308.24796875 -119.9375 321.16796875 C-127.1975 321.16796875 -134.4575 321.16796875 -141.9375 321.16796875 C-141.9375 332.05796875 -141.9375 342.94796875 -141.9375 354.16796875 C-134.6775 354.16796875 -127.4175 354.16796875 -119.9375 354.16796875 C-119.95321045 356.43768555 -119.9689209 358.70740234 -119.98510742 361.04589844 C-120.03504791 368.58551654 -120.06804608 376.12514238 -120.09293652 383.66488266 C-120.10852345 388.23159357 -120.12963267 392.79813353 -120.16381836 397.36474609 C-120.19666263 401.78032334 -120.2144053 406.19573723 -120.22213173 410.61142731 C-120.22763062 412.28735166 -120.23836722 413.96326813 -120.25469017 415.63912201 C-120.40661207 431.89870986 -118.32259182 448.21296814 -106.61328125 460.6484375 C-95.27128923 470.93290112 -81.67820008 473.3467661 -66.875 473.35546875 C-65.27108398 473.37383789 -65.27108398 473.37383789 -63.63476562 473.39257812 C-56.26397705 473.40593907 -49.1336224 472.84517889 -41.9375 471.16796875 C-40.58644855 470.0436924 -40.58644855 470.0436924 -40.82397461 467.11694336 C-40.82413366 465.76805604 -40.82982388 464.41916261 -40.83984375 463.0703125 C-40.8412587 462.36145401 -40.84267365 461.65259552 -40.84413147 460.92225647 C-40.84974557 458.64995163 -40.86230037 456.377744 -40.875 454.10546875 C-40.88001319 452.56836079 -40.88457641 451.0312513 -40.88867188 449.49414062 C-40.89971958 445.71871233 -40.91699359 441.94335704 -40.9375 438.16796875 C-41.62787354 438.18891602 -42.31824707 438.20986328 -43.02954102 438.23144531 C-46.18620993 438.3150797 -49.34264502 438.36677828 -52.5 438.41796875 C-53.58603516 438.45148438 -54.67207031 438.485 -55.79101562 438.51953125 C-62.43408866 438.6002981 -66.57491072 438.21019561 -71.9375 434.16796875 C-75.78462539 429.03846823 -76.0647909 424.48338729 -76.14282227 418.19628906 C-76.15272186 417.50320145 -76.16262146 416.81011383 -76.17282104 416.09602356 C-76.20432419 413.81274797 -76.22914902 411.52945161 -76.25390625 409.24609375 C-76.27448545 407.65996775 -76.29548218 406.07384711 -76.31687927 404.48773193 C-76.37200021 400.31866814 -76.42145337 396.14955567 -76.46972656 391.98040771 C-76.52886044 386.97513012 -76.59503339 381.96994123 -76.66002655 376.96473694 C-76.75791051 369.36586852 -76.84685234 361.76694247 -76.9375 354.16796875 C-64.3975 354.16796875 -51.8575 354.16796875 -38.9375 354.16796875 C-38.9375 343.27796875 -38.9375 332.38796875 -38.9375 321.16796875 C-51.4775 321.16796875 -64.0175 321.16796875 -76.9375 321.16796875 C-76.9375 306.31796875 -76.9375 291.46796875 -76.9375 276.16796875 C-79.87159964 276.16796875 -82.14838024 276.2972197 -84.97167969 276.81054688 Z M-15.9375 327.16796875 C-15.9375 338.38796875 -15.9375 349.60796875 -15.9375 361.16796875 C-12.3075 360.17796875 -8.6775 359.18796875 -4.9375 358.16796875 C-1.37792663 357.27484882 2.18113409 356.39633595 5.75 355.54296875 C6.63494141 355.32640625 7.51988281 355.10984375 8.43164062 354.88671875 C24.23959493 351.10122193 42.22318776 349.30688244 57.05078125 357.23046875 C61.35988925 360.30993055 63.72031201 365.16239707 65.0625 370.16796875 C65.1250205 372.50046433 65.13626684 374.83580175 65.0625 377.16796875 C63.97702881 377.14440308 63.97702881 377.14440308 62.86962891 377.12036133 C35.31861338 376.60287911 8.49887289 377.90499447 -12.67578125 397.75 C-22.22553797 407.95949811 -24.64550918 419.57567984 -24.22265625 433.10546875 C-23.94605753 438.13285302 -22.96989999 442.55187 -20.9375 447.16796875 C-20.60878906 447.92207031 -20.28007812 448.67617188 -19.94140625 449.453125 C-14.05551266 461.32674425 -4.19098104 468.04802112 8.12109375 472.19921875 C22.63643275 476.11346747 37.64253843 475.58581235 51.09765625 468.58984375 C56.87572461 465.13700075 60.93877151 461.45480015 65.0625 456.16796875 C65.7225 455.83796875 66.3825 455.50796875 67.0625 455.16796875 C67.0625 460.11796875 67.0625 465.06796875 67.0625 470.16796875 C80.2625 470.16796875 93.4625 470.16796875 107.0625 470.16796875 C107.15325238 457.27554647 107.22647522 444.38334005 107.26974869 431.49066925 C107.29052887 425.50260956 107.31866994 419.51478176 107.36425781 413.52685547 C107.40805896 407.73667658 107.43170886 401.94671925 107.44200897 396.15638733 C107.44933928 393.95903542 107.46365162 391.76169417 107.48542023 389.56443787 C107.68155904 368.92600724 105.74213222 350.33335502 91.125 334.35546875 C75.60067751 319.74810487 54.77221089 316.4805528 34.18115234 317.07910156 C16.93105302 317.80265954 0.22729571 321.10617036 -15.9375 327.16796875 Z M-202.9375 321.16796875 C-202.9375 370.33796875 -202.9375 419.50796875 -202.9375 470.16796875 C-188.7475 470.16796875 -174.5575 470.16796875 -159.9375 470.16796875 C-159.9375 420.99796875 -159.9375 371.82796875 -159.9375 321.16796875 C-174.1275 321.16796875 -188.3175 321.16796875 -202.9375 321.16796875 Z M130.0625 321.16796875 C129.99450782 334.61647264 129.93955935 348.06486087 129.90706348 361.51349831 C129.89146086 367.75938977 129.87032189 374.00515673 129.83618164 380.25097656 C129.80339479 386.28752223 129.78560643 392.32394873 129.77786827 398.36057663 C129.77235929 400.65446216 129.76160237 402.94834177 129.74530983 405.24217606 C129.61126726 424.91056061 130.37142766 444.20546769 143.8359375 459.9140625 C153.72103226 469.92055316 166.16719914 474.35263136 180.0625 474.48046875 C191.80440149 474.5031828 202.68287925 471.47738458 212.0625 464.16796875 C214.94800495 461.29187817 217.47629045 458.32889154 220.0625 455.16796875 C221.0525 462.59296875 221.0525 462.59296875 222.0625 470.16796875 C235.5925 470.16796875 249.1225 470.16796875 263.0625 470.16796875 C263.0625 420.99796875 263.0625 371.82796875 263.0625 321.16796875 C248.8725 321.16796875 234.6825 321.16796875 220.0625 321.16796875 C220.03671875 328.04253906 220.0109375 334.91710937 219.984375 342 C219.95919108 346.37047935 219.93284617 350.74089055 219.90234375 355.11132812 C219.85410138 362.03930874 219.81002177 368.96713152 219.79150391 375.89526367 C219.77629449 381.48459717 219.74177262 387.07351608 219.69419098 392.66266441 C219.67942137 394.78871737 219.67146154 396.91482952 219.67061615 399.04093361 C219.65135826 423.20098579 219.65135826 423.20098579 212.75 432.66796875 C206.26609546 438.69950785 200.24011404 438.70705563 191.60546875 438.51953125 C185.7746323 437.9409477 183.11049033 436.04529322 178.8125 432.10546875 C172.32768313 421.22024044 173.58678591 408.08892302 173.55078125 395.875 C173.53391458 393.71594738 173.5157617 391.55690446 173.49638367 389.39787292 C173.4490935 383.74766064 173.41914871 378.09748772 173.39294434 372.44714355 C173.35776255 365.65035803 173.30080999 358.85372353 173.24755096 352.05706024 C173.16928343 341.76071619 173.11849125 331.46456649 173.0625 321.16796875 C158.8725 321.16796875 144.6825 321.16796875 130.0625 321.16796875 Z " fill="#000000" transform="translate(269.9375,-0.16796875)"/>
<path d="M0 0 C0.08820927 3.16648655 0.1407905 6.33265092 0.1875 9.5 C0.21263672 10.386875 0.23777344 11.27375 0.26367188 12.1875 C0.34862879 19.89026071 -0.95161264 26.69620217 -6.37109375 32.6171875 C-12.92784735 38.18335242 -20.51833542 40.23525785 -29 40 C-36.2604909 39.15575687 -42.30196083 36.83204862 -47 31 C-49.40857583 25.26529564 -49.36456271 19.98232203 -48 14 C-44.87440042 7.97205795 -40.44685085 4.13827181 -34.109375 1.66015625 C-25.47529643 -1.04199056 -8.50493966 -4.25246983 0 0 Z " fill="#000000" transform="translate(336,404)"/>
</svg>
